<svg width="1882" height="1281" xmlns="http://www.w3.org/2000/svg"><g fill="rgba(255,228,54,0.5)" fill-rule="evenodd"><path d="M1756.528 733.552c17.335-3.21 21.94-7.377 21.117-18.42-.019-14.495-18.191-25.695-57.095-32.382l-4.555-.783-1.067-4.5c-6.61-27.878-13.013-46.731-18.923-56.194-23.938-38.332-78.324-63.442-151.9-72.25-69.79-8.355-151.617-1.213-224.663 19.505-54.696 18.298-98.418 49.26-132.148 90.946-28.918 35.74-49.842 78.563-63.51 126.112-22.662 77.946-17.32 148.107 15.942 210.88 35.204-37.269 96.633-60.2 180.542-68.795-33.139-24.675-53.912-59.888-53.912-99.173 0-75.205 76.128-135.486 169.391-135.486 28.739 0 60.086 6.445 87.46 22.12 18.853 10.796 45.23 41.369 52.969 38.227 7.738-3.142 5.518-6.975 5.518-12.429 0-3.635-1.84-10.256-5.518-19.863-21.381-28.832-53.637-47.518-96.767-56.056-43.13-8.539-110.71 3.725-202.74 36.792 69.935-44.25 133.046-66.374 189.335-66.374 3.898 0 10.593-12.53 20.34-14.156 6.805-1.134 20.738-1.134 41.802 0-15.414-6.53-31.66-10.029-48.737-10.495-9.433-.258-35.947 3.24-79.542 10.495-9.09.232-13.85-1.292-14.28-4.573-.431-3.28 2.654-7.047 9.256-11.298 38.842-13.984 80.177-19.117 124.004-15.398 9.535.81 44.54 5.213 78.045 19.707 6.342 2.743 12.327 8.493 17.954 17.25 5.135.203 7.925 1.997 8.367 5.384.443 3.386-1.574 5.742-6.05 7.067l-8.334 7.124c2.955 1.077 4.96 3.946 6.017 8.606 1.584 6.99 1.546 12.515 1.63 14.988.085 2.472.052 4.416.687 4.955 2.025 1.718 4.944-.554 6.05-.758 11.41-4.494 18.635-12.149 29.713 0 1.577 3.96-.401 8.61 0 8.423 31.967-14.93 47.245.348 49.306 2.613.57.627-20.514 5.754-51.086 20.998-29.208 14.564-51.526 43.39-54.254 46.998-5.584 7.383-6.17 14.056-2.923 17.677 3.248 3.62 16.574 2.158 19.865 0 39.558-25.937 65.527-39.028 97.737-39.028 13.556 0 27.621 4.753 44.957 1.544zM1822 835.997c0 42.66-27.235 79.233-66.145 95.289 16.83 28.576 28.133 50.433 33.906 65.569 11.523 30.209 16.971 65.402 21.511 87.928 8.101 40.198 3.392 94.27-14.127 162.217-64.448-80.118-124.375-141.72-179.778-184.807l-112.463-2.493-1.234 12.463a6.997 6.997 0 1 1-13.923-1.38l1.128-11.394-49.13-1.09-1.517 22.152a6.997 6.997 0 1 1-13.958-.957l1.472-21.505-70.815-1.57-1.645 24.032a6.997 6.997 0 1 1-13.958-.957l1.6-23.386-73.759-1.635c-4.69-.104-8.408-3.993-8.304-8.686.104-4.692 3.99-8.412 8.68-8.308l74.546 1.653 2.234-32.63a6.997 6.997 0 0 1 7.457-6.505 6.998 6.998 0 0 1 6.501 7.46l-2.19 31.985 70.815 1.57 2.362-34.51a6.997 6.997 0 1 1 13.959.956l-2.319 33.865 49.65 1.1 2.687-27.135a6.997 6.997 0 1 1 13.923 1.381l-2.582 26.066 87.032 1.93c-32.33-22.551-63.047-38.488-92.147-47.81-127.247-40.764-336.062-25.6-353.434 75.308-3.711 21.56 24.815 35.29 57.814 45.273 37.429 11.323 144.65 8.896 321.665-12.278 31.483-2.606 44.156 1.487 38.02 12.278-6.137 10.79-30.86 20.005-74.168 27.643-264.154 35.53-392.646 11.441-385.476-72.266 2.115-24.685 10.29-46.303 24.153-64.854-37.4-67.337-48.388-142.306-24.153-225.662 14.15-49.23 35.192-94.793 65.246-132.384 29.43-36.81 76.97-76.806 133.234-98.59.318-.09 5.916-7.687 6.78-14.084.866-6.397-5.303-9.22-2.7-16.092 1.736-4.58 3.688-6.45 5.854-5.607l3.49-18.233c-20.749-9.888-33.06-23.308-36.935-40.262-3.874-16.954-.321-33.876 10.659-50.766-33.28-15.776-48.3-42.238-45.06-79.388 3.241-37.15 20.68-55.678 52.316-55.588 6.451-3.458 9.677-10 9.677-19.623 0-9.624-3.226-17.436-9.677-23.436-69.643-15.496-100.618-48.006-92.925-97.532 9.101-57.214 57.362-100.596 190.014-96.436 132.651 4.16 235.898 61.672 235.898 207.311 0 48.747-17.671 93.86-35.39 122.934-11.813 19.383-37.012 39.887-75.596 61.513-40.396 21.322-65.58 36.213-75.55 44.674-39.786 33.76-65.125 64.516-49.362 60.983 47.043-10.544 111.59-5.16 154.695 0 77.365 9.262 130.683 39.524 157.312 82.164 6.578 10.534 13.029 29.069 19.597 55.917 41.834 7.89 63.977 22.233 64.15 44.576 1.065 15.626-7.208 26.596-23.287 32.43 32.132 18.16 53.67 51.283 53.67 89.219zm-230.302 121.85c1.707 5.487 10.537 20.46 15.551 25.538 5.014 5.078 25.62 14.827 31.427 10.051 5.807-4.775-3.67-26.765-5.708-30.407-1.287-2.302-11.107-15.547-20.705-23.406-5.588-4.575-13.824-5.66-15.458-5.142-4.44 1.408-6.815 17.878-5.107 23.365zm-159.38-8.94c83.898 0 151.404-54.09 151.404-119.988 0-65.897-67.506-119.988-151.404-119.988s-151.403 54.09-151.403 119.988 67.505 119.988 151.403 119.988zm13.423-96.412c-16.558 0-29.981-12.758-29.981-28.497 0-15.738 13.423-28.497 29.98-28.497 16.559 0 29.982 12.759 29.982 28.497 0 15.739-13.423 28.497-29.981 28.497zm265.83 74.493c53.903 0 97.437-40.835 97.437-90.991s-43.534-90.99-97.437-90.99c-53.904 0-97.438 40.834-97.438 90.99 0 50.156 43.534 90.99 97.438 90.99zm-40.826-77.992c-11.315 0-20.487-8.954-20.487-19.998 0-11.045 9.172-19.998 20.487-19.998 11.314 0 20.486 8.953 20.486 19.998 0 11.044-9.172 19.998-20.486 19.998zM172.797 729.228c11.024 0 22.647 1.499 34.87 4.497l-29.837 79.33a36.223 36.223 0 0 0-2.517-.481c-.719-.108-1.677-.161-2.876-.161-5.032 0-9.346 1.66-12.94 4.978-3.595 3.319-5.393 7.227-5.393 11.723v96.674H61v-96.674c0-13.703 2.936-26.604 8.807-38.702 5.872-12.097 13.9-22.696 24.085-31.796 10.185-9.1 22.048-16.273 35.588-21.519 13.54-5.246 27.98-7.869 43.317-7.869zm272.45 196.56H333.09c-15.338 0-29.777-2.409-43.317-7.226-13.54-4.818-25.403-11.563-35.588-20.234-10.185-8.672-18.214-18.896-24.085-30.673-5.871-11.776-8.807-24.623-8.807-38.54 0-15.632 2.995-29.603 8.987-41.914 5.991-12.312 14.02-22.75 24.085-31.315 10.065-8.565 21.808-15.149 35.228-19.752 13.42-4.604 27.56-6.906 42.418-6.906 15.338 0 29.897 2.409 43.677 7.227 13.78 4.817 25.822 11.562 36.127 20.234 10.305 8.672 18.453 19.163 24.444 31.475 5.992 12.312 8.987 25.962 8.987 40.95v96.674zm-93.824-96.674c0-5.139-1.797-9.153-5.392-12.044-3.595-2.89-7.909-4.336-12.941-4.336-5.273 0-9.706 1.445-13.3 4.336-3.596 2.89-5.393 6.905-5.393 12.044s1.797 9.154 5.392 12.044c3.595 2.89 8.028 4.336 13.3 4.336 5.033 0 9.347-1.445 12.942-4.336 3.595-2.89 5.392-6.905 5.392-12.044zm114.999-169.902h93.464v71.3c4.793-.856 11.023-1.284 18.692-1.284 15.098 0 29.357 2.623 42.778 7.87 13.42 5.245 25.283 12.418 35.588 21.518 10.305 9.1 18.453 19.699 24.444 31.796 5.992 12.098 8.987 24.999 8.987 38.702 0 13.704-2.935 26.604-8.807 38.702-5.871 12.098-13.9 22.696-24.085 31.796-10.185 9.1-22.048 16.273-35.588 21.52-13.54 5.245-27.979 7.868-43.317 7.868-15.577 0-30.136-2.623-43.676-7.869-13.54-5.246-25.403-12.419-35.588-21.519-10.185-9.1-18.213-19.698-24.085-31.796-5.871-12.098-8.807-24.998-8.807-38.702V659.212zm130.13 169.902c0-5.139-1.737-9.153-5.212-12.044-3.475-2.89-7.729-4.336-12.762-4.336-5.512 0-10.005 1.445-13.48 4.336-3.475 2.89-5.212 6.905-5.212 12.044s1.737 9.154 5.212 12.044c3.475 2.89 7.968 4.336 13.48 4.336 5.033 0 9.287-1.445 12.762-4.336 3.475-2.89 5.212-6.905 5.212-12.044zm202.711 96.674H705.8V732.44h93.464v193.348zm-8.268-236.386c0 9.422-3.535 17.29-10.604 23.607-7.07 6.316-15.877 9.475-26.422 9.475-10.784 0-19.711-3.159-26.78-9.475-7.07-6.317-10.605-14.185-10.605-23.607 0-4.496.958-8.778 2.875-12.847 1.918-4.068 4.554-7.654 7.909-10.76 3.355-3.104 7.31-5.513 11.863-7.226S748.697 656 753.969 656c10.545 0 19.352 3.212 26.422 9.635 7.07 6.424 10.604 14.346 10.604 23.767zm154.541-30.19H1039v169.902c0 13.704-2.936 26.604-8.807 38.702-5.872 12.098-13.9 22.696-24.085 31.796-10.185 9.1-22.048 16.273-35.588 21.52-13.54 5.245-27.98 7.868-43.317 7.868-15.338 0-29.836-2.623-43.496-7.869-13.66-5.246-25.583-12.419-35.768-21.519-10.185-9.1-18.214-19.698-24.085-31.796-5.872-12.098-8.807-24.998-8.807-38.702 0-13.703 2.995-26.657 8.987-38.862 5.99-12.205 14.139-22.804 24.444-31.797 10.305-8.993 22.168-16.112 35.588-21.358 13.42-5.246 27.68-7.869 42.778-7.869 3.594 0 6.89.107 9.885.321 2.996.215 5.932.536 8.807.964v-71.301zm0 169.902c0-5.139-1.797-9.153-5.392-12.044-3.595-2.89-7.908-4.336-12.94-4.336-5.273 0-9.707 1.445-13.302 4.336-3.594 2.89-5.392 6.905-5.392 12.044s1.798 9.154 5.392 12.044c3.595 2.89 8.029 4.336 13.301 4.336 5.033 0 9.346-1.445 12.941-4.336 3.595-2.89 5.392-6.905 5.392-12.044zM889.687 1130.812c-27.826 1.53-49.04 2.855-63.639 3.977-16.178 1.243-38.262 3.313-66.25 6.211.37-4.696.717-9.257 1.04-13.683-12.322 1.527-21.854 2.58-28.596 3.157-7.972.684-18.617 1.267-31.933 1.75-6.498-7.091-11.732-13.136-15.703-18.136-3.97-5-9.648-12.695-17.032-23.084v36.085c-12.906 1.214-22.917 2.113-30.034 2.698-7.116.585-17.923 1.397-32.42 2.436.127-2.15.25-4.265.37-6.347-24.967 6.36-49.507 9.937-73.619 10.73-43.3 1.422-76.158-13.793-81.625-33.446-5.922-28.825 8.11-59.182 30.513-83.287 13.114-14.11 42.263-31.342 87.448-51.696l26.168 55.063c-63.927 17.588-94.211 35.186-90.85 52.795 2.399 12.576 22.095 15.948 59.23 8.14 8.84-1.858 23.856-6.108 45.05-12.748.088-4.379.132-8.413.132-12.1 0-16.977-.939-42.68-2.818-77.111 9.722-.662 18.677-1.284 26.866-1.864 8.189-.58 20.052-1.556 35.589-2.928-.806 12.291-1.396 23.044-1.77 32.259-.373 9.214-.755 22.392-1.143 39.534 6.455-14.576 11.285-25.818 14.488-33.728 3.204-7.91 7.24-19.375 12.11-34.396 14.291-.729 25.83-1.222 34.618-1.48 8.787-.257 20.265-.987 34.434-2.189-11.908 24.426-20.8 42.97-26.677 55.633a1229.508 1229.508 0 0 0-17.43 39.394l45.179 47.21c1.845-26.64 2.767-47.999 2.767-64.073 0-20.16-1.45-44.626-4.353-73.4 20.293-1.815 39.62-4.122 57.983-6.92A822.938 822.938 0 0 0 872.611 965c.533 8.617 1.09 16.61 1.672 23.976.582 7.367 1.44 17.294 2.574 29.782-15.73.461-26.326.873-31.787 1.234-22.098 1.464-30.504 3.11-30.543 3.86-.096 1.83-.096 7.348 0 16.555 5.847-.465 12.444-1.294 19.792-2.49 7.348-1.195 18.362-3.23 33.04-6.103v36.375c-16.16.944-27.173 1.668-33.04 2.173-10.506.904-20.178 2.05-20.178 2.696v16.366c9.838-.95 20.787-2.33 32.848-4.14 11.753-1.764 26.948-4.294 45.585-7.592.251-7.351.377-13.794.377-19.328 0-16.48-1.115-40.292-3.344-71.433 11.596-.927 20.978-1.589 28.148-1.985 7.169-.396 17.925-1.51 32.269-3.34 6.74 11.918 11.93 20.71 15.572 26.376 3.642 5.667 9.2 13.6 16.674 23.8-.739-10.085-1.228-18.694-1.467-25.83-.24-7.135-1.106-16.336-2.6-27.604 14.625-.906 25.616-1.647 32.974-2.224 7.357-.577 16.277-1.396 26.76-2.457-1.457 29.538-2.344 53.959-2.662 73.263-.318 19.304.924 47.656 3.725 85.054l-60.796 5.27c-11.103-26.895-17.815-42.716-20.135-47.462-2.32-4.747-5.74-9.653-10.26-14.72-.252 11.15-.252 19.609 0 25.377.252 5.769.99 15.073 2.215 27.913l-60.417 3.622.08-1.172zm-667.861-59.984c.054-3.111.081-6.048.081-8.81 0-16.883-1.017-41.966-3.053-75.25l61.729-5.26c-1.234 15.59-1.99 27.168-2.267 34.732-.277 7.564-.277 16.58 0 27.047l23.764-3.655c-.148-12.025-.403-21.8-.766-29.324-.364-7.524-1.346-18.314-2.948-32.368l63.181-4.196c-2.622 34.58-3.933 60.913-3.933 79 0 18.087 1.311 44.598 3.933 79.531l-64.526 5.297c2.061-18.538 3.492-32.741 4.293-42.61.8-9.869.8-16.98 0-21.334l-22.998 2.776c-.905 4.599-1.19 10.785-.852 18.558.337 7.773 1.377 18.999 3.119 33.677l-61.729 3.636c.158-2.318.309-4.598.454-6.838-25.555 6.636-50.663 10.358-75.324 11.168-43.301 1.423-76.158-13.792-81.625-33.445-5.923-28.825 8.11-59.182 30.513-83.287 13.113-14.11 42.263-31.342 87.448-51.696l26.168 55.063c-63.928 17.588-94.212 35.186-90.851 52.795 2.4 12.576 22.095 15.948 59.231 8.14 9.103-1.914 24.755-6.363 46.958-13.347zm158.081-88.936l63.044-4.72c-3.072 32.197-4.607 56.796-4.607 73.797 0 17 1.535 42.344 4.607 76.033l-63.044 4.347c3.156-34.615 4.733-61.408 4.733-80.38 0-18.972-1.577-41.998-4.733-69.077z"/></g></svg>