<?xml version="1.0" encoding="UTF-8"?>
<svg width="1882px" height="1281px" viewBox="0 0 1882 1281" version="1.1" xmlns="http://www.w3.org/2000/svg" xmlns:xlink="http://www.w3.org/1999/xlink">
    <!-- Generator: Sketch 51.2 (57519) - http://www.bohemiancoding.com/sketch -->
    <title>logo-rabidchicken</title>
    <desc>Created with Sketch.</desc>
    <defs></defs>
    <g id="logo-rabidchicken" stroke="none" stroke-width="1" fill="none" fill-rule="evenodd">
        <g id="logo" transform="translate(61.000000, 34.000000)" fill="rgba(255,228,54,0.5)">
            <path d="M1695.52761,699.551984 C1712.86293,696.342505 1717.46837,692.175128 1716.6454,681.132253 C1716.62603,666.637322 1698.45383,655.43686 1659.55044,648.749737 L1654.99522,647.966738 L1653.92831,643.467185 C1647.31804,615.589151 1640.91452,596.735867 1635.00499,587.273101 C1611.06662,548.94122 1556.68069,523.831104 1483.1043,515.022683 C1413.31592,506.667753 1331.48848,513.810255 1258.44238,534.528253 C1203.74562,552.825595 1160.02415,583.787148 1126.29389,625.473661 C1097.37562,661.213126 1076.45151,704.037009 1062.78435,751.586324 C1040.12199,829.531861 1045.46353,899.692886 1078.72599,962.465567 C1113.93023,925.19721 1175.35851,902.265712 1259.26756,893.671071 C1226.12935,868.995872 1205.35555,833.78291 1205.35555,794.4978 C1205.35555,719.293183 1281.48436,659.01158 1374.74716,659.01158 C1403.48601,659.01158 1434.8327,665.457496 1462.20713,681.132253 C1481.06001,691.927521 1507.43776,722.500567 1515.17581,719.358536 C1522.91386,716.216506 1520.69395,712.383608 1520.69395,706.930279 C1520.69395,703.294726 1518.85457,696.673607 1515.17581,687.066921 C1493.79481,658.234565 1461.53937,639.549208 1418.40949,631.01085 C1375.27962,622.472491 1307.69934,634.736396 1215.66866,667.802563 C1285.60356,623.553547 1348.71537,601.429039 1405.00409,601.429039 C1408.90236,601.429039 1415.59721,588.898406 1425.34479,587.273101 C1432.14886,586.138596 1446.08243,586.138596 1467.14552,587.273101 C1451.73171,580.74269 1435.48637,577.244232 1418.40949,576.77773 C1408.9757,576.520019 1382.46153,580.018476 1338.86697,587.273101 C1329.77712,587.505274 1325.01696,585.980923 1324.5865,582.700049 C1324.15603,579.419175 1327.24141,575.653085 1333.84265,571.40178 C1372.68548,557.41773 1414.02023,552.285192 1457.84689,556.004168 C1467.3819,556.813275 1502.38647,561.216613 1535.89167,575.71087 C1542.23386,578.454481 1548.21854,584.204319 1553.84572,592.960383 C1558.98132,593.163602 1561.7705,594.958428 1562.21327,598.344861 C1562.65603,601.731294 1560.63942,604.087074 1556.16344,605.4122 L1547.82921,612.535801 C1550.7843,613.613154 1552.7898,616.481741 1553.84572,621.141562 C1555.42959,628.131294 1555.39233,633.657382 1555.47658,636.129845 C1555.56083,638.602308 1555.52846,640.546406 1556.16344,641.085211 C1558.18755,642.802743 1561.1065,640.531057 1562.21327,640.326965 C1573.62344,635.83273 1580.84793,628.178322 1591.92585,640.326965 C1593.50251,644.287366 1591.52476,648.937062 1591.92585,648.749737 C1623.89327,633.81971 1639.17088,649.097904 1641.23154,651.362833 C1641.80198,651.989818 1620.71832,657.11739 1590.14604,672.361331 C1560.93778,686.925145 1538.62003,715.751269 1535.89167,719.358536 C1530.30754,726.74153 1529.7223,733.415196 1532.9694,737.035708 C1536.21651,740.656219 1549.54327,739.193557 1552.8344,737.035708 C1592.39244,711.099247 1618.36099,698.007614 1650.57066,698.007614 C1664.12727,698.007614 1678.19229,702.761462 1695.52761,699.551984 Z M1761,801.997038 C1761,844.656322 1733.76455,881.229525 1694.85479,897.285844 C1711.68558,925.862333 1722.9878,947.71869 1728.76144,962.854915 C1740.28439,993.063592 1745.73229,1028.25714 1750.272,1050.78333 C1758.37298,1090.98069 1753.66412,1145.05291 1736.14541,1213 C1671.69678,1132.88151 1611.77048,1071.27927 1556.36652,1028.19329 L1443.90404,1025.69971 L1442.66957,1038.16333 C1442.28857,1042.01009 1438.86297,1044.81947 1435.01828,1044.43826 C1431.17359,1044.05705 1428.36572,1040.6296 1428.74672,1036.78285 L1429.87527,1025.38865 L1380.74432,1024.29929 L1379.22793,1046.45051 C1378.96392,1050.30707 1375.62522,1053.2193 1371.77073,1052.95515 C1367.91624,1052.691 1365.00558,1049.35051 1365.26958,1045.49394 L1366.74174,1023.98882 L1295.92741,1022.41868 L1294.28228,1046.45051 C1294.01828,1050.30707 1290.67957,1053.2193 1286.82508,1052.95515 C1282.97059,1052.691 1280.05993,1049.35051 1280.32394,1045.49394 L1281.92484,1022.10821 L1208.16547,1020.47277 C1203.4752,1020.36878 1199.75725,1016.48022 1199.86119,1011.78742 C1199.96513,1007.09463 1203.8516,1003.37468 1208.54187,1003.47868 L1283.087,1005.13153 L1285.32074,972.501366 C1285.58475,968.644801 1288.92345,965.732572 1292.77794,965.996721 C1296.63243,966.260869 1299.54309,969.601367 1299.27908,973.457931 L1297.08957,1005.44201 L1367.9039,1007.01214 L1370.26639,972.501366 C1370.53039,968.644801 1373.86909,965.732572 1377.72358,965.996721 C1381.57807,966.260869 1384.48874,969.601367 1384.22473,973.457931 L1381.90648,1007.32262 L1431.5556,1008.42347 L1434.24321,981.288491 C1434.62421,977.441733 1438.04981,974.632352 1441.8945,975.013563 C1445.73919,975.394773 1448.54706,978.822218 1448.16606,982.668975 L1445.58437,1008.73452 L1532.6162,1010.66424 C1500.28507,988.113818 1469.5693,972.177376 1440.46891,962.854915 C1313.22177,922.090636 1104.4067,937.255908 1087.03525,1038.16333 C1083.32384,1059.7222 1111.85032,1073.45255 1144.84918,1083.43575 C1182.27788,1094.75911 1289.49958,1092.33232 1466.51428,1071.15837 C1497.99715,1068.5522 1510.67022,1072.64466 1504.53349,1083.43575 C1498.39677,1094.22684 1473.67438,1103.44137 1430.36633,1111.07936 C1166.21217,1146.60886 1037.72018,1122.51998 1044.89036,1038.81271 C1047.00484,1014.12756 1055.17916,992.50953 1069.04294,973.958605 C1031.64345,906.621738 1020.65497,831.652943 1044.89036,748.297185 C1059.04077,699.066488 1080.0825,653.503847 1110.13579,615.913396 C1139.56527,579.103206 1187.10514,539.107155 1243.36993,517.322521 C1243.68789,517.232209 1249.2858,509.635733 1250.15085,503.238993 C1251.01591,496.842253 1244.84677,494.019248 1247.45061,487.14743 C1249.1865,482.566218 1251.13755,480.696917 1253.30375,481.539527 L1256.79373,463.307246 C1236.04508,453.419445 1223.73357,439.998608 1219.85918,423.044734 C1215.9848,406.09086 1219.53766,389.168889 1230.51775,372.278821 C1197.2373,356.50346 1182.21756,330.041013 1185.45853,292.891479 C1188.69949,255.741945 1206.13807,237.212606 1237.77427,237.30346 C1244.22516,233.844859 1247.45061,227.303714 1247.45061,217.680025 C1247.45061,208.056336 1244.22516,200.244409 1237.77427,194.244243 C1168.1308,178.748246 1137.15577,146.237515 1144.84918,96.712052 C1153.95014,39.4979654 1202.21141,-3.88359506 1334.86293,0.27582423 C1467.51445,4.43524352 1570.76051,61.9475024 1570.76051,207.587145 C1570.76051,256.333892 1553.08958,301.446432 1535.37036,330.520723 C1523.55754,349.903583 1498.35919,370.407882 1459.7753,392.03362 C1419.37917,413.355872 1394.19565,428.247402 1384.22473,436.708208 C1344.43932,470.468054 1319.10029,501.223702 1334.86293,497.690942 C1381.90648,487.14743 1446.45264,492.530424 1489.55824,497.690942 C1566.92271,506.952865 1620.24114,537.214768 1646.87024,579.855246 C1653.44846,590.38878 1659.89894,608.92379 1666.46665,635.772212 C1708.30123,643.661872 1730.44364,658.004541 1730.61606,680.348451 C1731.682,695.973647 1723.40917,706.944123 1707.32987,712.777181 C1739.46226,730.938812 1761,764.061495 1761,801.997038 Z M1530.69773,923.846443 C1532.40544,929.334363 1541.2354,944.306802 1546.2491,949.385134 C1551.26279,954.463467 1571.86813,964.212132 1577.67571,959.436495 C1583.48328,954.660858 1574.00602,932.670683 1571.96844,929.02897 C1570.68065,926.727335 1560.86071,913.481854 1551.26279,905.623376 C1545.67461,901.047945 1537.43917,899.963339 1535.80515,900.481369 C1531.36463,901.889134 1528.99002,918.358524 1530.69773,923.846443 Z M1371.31844,914.906951 C1455.21643,914.906951 1522.72156,860.816648 1522.72156,794.919155 C1522.72156,729.021662 1455.21643,674.931358 1371.31844,674.931358 C1287.42046,674.931358 1219.91532,729.021662 1219.91532,794.919155 C1219.91532,860.816648 1287.42046,914.906951 1371.31844,914.906951 Z M1384.74076,818.49536 C1368.18281,818.49536 1354.75995,805.736773 1354.75995,789.998258 C1354.75995,774.259743 1368.18281,761.501156 1384.74076,761.501156 C1401.29871,761.501156 1414.72158,774.259743 1414.72158,789.998258 C1414.72158,805.736773 1401.29871,818.49536 1384.74076,818.49536 Z M1650.57066,892.987784 C1704.47435,892.987784 1748.00831,852.152731 1748.00831,801.997038 C1748.00831,751.841345 1704.47435,711.006292 1650.57066,711.006292 C1596.66697,711.006292 1553.13301,751.841345 1553.13301,801.997038 C1553.13301,852.152731 1596.66697,892.987784 1650.57066,892.987784 Z M1609.74451,814.995716 C1598.42992,814.995716 1589.25762,806.042321 1589.25762,794.99775 C1589.25762,783.953178 1598.42992,774.999783 1609.74451,774.999783 C1621.05911,774.999783 1630.23141,783.953178 1630.23141,794.99775 C1630.23141,806.042321 1621.05911,814.995716 1609.74451,814.995716 Z" id="mark"></path>
            <path d="M111.796915,695.228235 C122.820889,695.228235 134.443818,696.727044 146.66605,699.724706 L116.829574,779.055294 C115.870967,778.841175 115.032199,778.680589 114.313244,778.573529 C113.59429,778.46647 112.635698,778.412941 111.43744,778.412941 C106.404756,778.412941 102.091092,780.072336 98.4963176,783.391176 C94.9015435,786.710017 93.1041834,790.617625 93.1041834,795.114118 L93.1041834,891.788235 L0,891.788235 L0,795.114118 C0,781.41052 2.93568814,768.51006 8.80715248,756.412353 C14.6786168,744.314645 22.7068252,733.715928 32.8920185,724.615882 C43.0772117,715.515837 54.9397883,708.342967 68.480104,703.097059 C82.0204197,697.85115 96.4592124,695.228235 111.796915,695.228235 Z M384.246144,891.788235 L272.089753,891.788235 C256.75205,891.788235 242.313258,889.379436 228.772942,884.561765 C215.232626,879.744094 203.37005,872.999455 193.184856,864.327647 C182.999663,855.655839 174.971455,845.431824 169.09999,833.655294 C163.228526,821.878765 160.292838,809.031834 160.292838,795.114118 C160.292838,779.483451 163.288438,765.512414 169.279728,753.200588 C175.271018,740.888762 183.299227,730.450631 193.364594,721.885882 C203.429962,713.321134 215.172714,706.737082 228.593204,702.133529 C242.013694,697.529977 256.152927,695.228235 271.011326,695.228235 C286.349029,695.228235 300.907646,697.637035 314.687613,702.454706 C328.46758,707.272377 340.509893,714.017015 350.814912,722.688824 C361.119931,731.360632 369.267964,741.852291 375.259254,754.164118 C381.250544,766.475944 384.246144,780.125807 384.246144,795.114118 L384.246144,891.788235 Z M290.423009,795.114118 C290.423009,789.975268 288.625649,785.960603 285.030875,783.07 C281.436101,780.179397 277.122437,778.734118 272.089753,778.734118 C266.817418,778.734118 262.38393,780.179397 258.789156,783.07 C255.194381,785.960603 253.397021,789.975268 253.397021,795.114118 C253.397021,800.252967 255.194381,804.267633 258.789156,807.158235 C262.38393,810.048838 266.817418,811.494118 272.089753,811.494118 C277.122437,811.494118 281.436101,810.048838 285.030875,807.158235 C288.625649,804.267633 290.423009,800.252967 290.423009,795.114118 Z M405.42192,625.211765 L498.885579,625.211765 L498.885579,696.512941 C503.678611,695.656466 509.90946,695.228235 517.578311,695.228235 C532.676362,695.228235 546.935419,697.85115 560.355909,703.097059 C573.776399,708.342967 585.638975,715.515837 595.943994,724.615882 C606.249013,733.715928 614.397046,744.314645 620.388336,756.412353 C626.379626,768.51006 629.375226,781.41052 629.375226,795.114118 C629.375226,808.817716 626.439538,821.718175 620.568074,833.815882 C614.696609,845.91359 606.668401,856.512307 596.483208,865.612353 C586.298015,874.712398 574.435438,881.885268 560.895122,887.131176 C547.354807,892.377085 532.916014,895 517.578311,895 C502.000957,895 487.44234,892.377085 473.902024,887.131176 C460.361709,881.885268 448.499132,874.712398 438.313939,865.612353 C428.128746,856.512307 420.100537,845.91359 414.229073,833.815882 C408.357608,821.718175 405.42192,808.817716 405.42192,795.114118 L405.42192,625.211765 Z M535.552092,795.114118 C535.552092,789.975268 533.814644,785.960603 530.339695,783.07 C526.864747,780.179397 522.610995,778.734118 517.578311,778.734118 C512.066324,778.734118 507.572924,780.179397 504.097976,783.07 C500.623027,785.960603 498.885579,789.975268 498.885579,795.114118 C498.885579,800.252967 500.623027,804.267633 504.097976,807.158235 C507.572924,810.048838 512.066324,811.494118 517.578311,811.494118 C522.610995,811.494118 526.864747,810.048838 530.339695,807.158235 C533.814644,804.267633 535.552092,800.252967 535.552092,795.114118 Z M738.263052,891.788235 L644.799393,891.788235 L644.799393,698.44 L738.263052,698.44 L738.263052,891.788235 Z M729.995113,655.402353 C729.995113,664.823577 726.460305,672.692321 719.390582,679.008824 C712.32086,685.325326 703.513795,688.483529 692.969125,688.483529 C682.184803,688.483529 673.257914,685.325326 666.188192,679.008824 C659.118469,672.692321 655.583661,664.823577 655.583661,655.402353 C655.583661,650.90586 656.542253,646.62355 658.459466,642.555294 C660.376679,638.487038 663.012807,634.900604 666.36793,631.795882 C669.723052,628.691161 673.677244,626.282362 678.230625,624.569412 C682.784005,622.856462 687.696789,622 692.969125,622 C703.513795,622 712.32086,625.211733 719.390582,631.635294 C726.460305,638.058856 729.995113,645.981129 729.995113,655.402353 Z M884.536341,625.211765 L978,625.211765 L978,795.114118 C978,808.817716 975.064312,821.718175 969.192848,833.815882 C963.321383,845.91359 955.293175,856.512307 945.107982,865.612353 C934.922788,874.712398 923.060212,881.885268 909.519896,887.131176 C895.97958,892.377085 881.540788,895 866.203085,895 C850.865382,895 836.366677,892.377085 822.706536,887.131176 C809.046394,881.885268 797.123906,874.712398 786.938712,865.612353 C776.753519,856.512307 768.725311,845.91359 762.853847,833.815882 C756.982382,821.718175 754.046694,808.817716 754.046694,795.114118 C754.046694,781.41052 757.042294,768.456532 763.033584,756.251765 C769.024874,744.046998 777.172907,733.44828 787.477926,724.455294 C797.782945,715.462308 809.645521,708.342967 823.066011,703.097059 C836.486501,697.85115 850.745558,695.228235 865.843609,695.228235 C869.438383,695.228235 872.733543,695.335293 875.729189,695.549412 C878.724834,695.76353 881.660522,696.084704 884.536341,696.512941 L884.536341,625.211765 Z M884.536341,795.114118 C884.536341,789.975268 882.738981,785.960603 879.144207,783.07 C875.549433,780.179397 871.235769,778.734118 866.203085,778.734118 C860.930749,778.734118 856.497261,780.179397 852.902487,783.07 C849.307713,785.960603 847.510353,789.975268 847.510353,795.114118 C847.510353,800.252967 849.307713,804.267633 852.902487,807.158235 C856.497261,810.048838 860.930749,811.494118 866.203085,811.494118 C871.235769,811.494118 875.549433,810.048838 879.144207,807.158235 C882.738981,804.267633 884.536341,800.252967 884.536341,795.114118 Z" id="rabid"></path>
            <path d="M828.687025,1096.81229 C800.860527,1098.34153 779.647638,1099.66699 765.048358,1100.78867 C748.870007,1102.03166 726.786303,1104.10211 698.797248,1107 C699.167783,1102.30358 699.514662,1097.74265 699.837886,1093.31722 C687.51609,1094.84417 677.984237,1095.89655 671.242326,1096.47437 C663.269942,1097.15764 652.625469,1097.74068 639.308907,1098.22348 C632.811164,1091.1329 627.576891,1085.08763 623.606088,1080.08767 C619.635285,1075.0877 613.957921,1067.39322 606.573994,1057.00423 L606.573994,1093.0893 C593.667979,1094.30278 583.656764,1095.20203 576.540347,1095.78705 C569.423931,1096.37206 558.61695,1097.18421 544.119405,1098.22348 C544.247109,1096.07385 544.370473,1093.95806 544.489496,1091.87611 C519.522821,1098.23686 494.983478,1101.81327 470.871468,1102.60535 C427.570405,1104.02778 394.71302,1088.81313 389.246464,1069.16013 C383.323606,1040.33464 397.355907,1009.97822 419.75943,985.872819 C432.872782,971.763312 462.022049,954.531289 507.207232,934.176751 L533.375426,989.23974 C469.447643,1006.82767 439.163878,1024.42614 442.52413,1042.03516 C444.923985,1054.61132 464.619573,1057.98338 501.755437,1050.17522 C510.595027,1048.31661 525.611314,1044.06735 546.804299,1037.42744 C546.892968,1033.04801 546.937303,1029.01424 546.937303,1025.32611 C546.937303,1008.35005 545.998004,982.646701 544.119405,948.216046 C553.84114,947.553615 562.796361,946.932201 570.985066,946.351803 C579.173772,945.771405 591.036748,944.795511 606.573994,943.42412 C605.76826,955.715239 605.178421,966.468082 604.804475,975.682652 C604.43053,984.897221 604.049208,998.075265 603.660508,1015.21678 C610.11641,1000.64141 614.946055,989.398804 618.149442,981.488959 C621.352829,973.579114 625.389429,962.113841 630.259241,947.09314 C644.550159,946.364297 656.089296,945.871064 664.876652,945.61344 C673.664007,945.355817 685.142179,944.626044 699.311166,943.42412 C687.403169,967.850483 678.510655,986.394625 672.633624,999.056546 C666.756594,1011.71847 660.94679,1024.85012 655.204212,1038.45149 L700.382787,1085.66181 C702.227732,1059.02014 703.150204,1037.66226 703.150204,1021.58817 C703.150204,1001.42861 701.699219,976.96176 698.797248,948.187629 C719.089955,946.372724 738.41768,944.066456 756.780424,941.268825 C775.143169,938.471195 793.420126,935.048253 811.611296,931 C812.144098,939.617127 812.701387,947.609064 813.283162,954.975809 C813.864937,962.342555 814.722784,972.269819 815.856702,984.757602 C800.126849,985.219047 789.531213,985.630644 784.069795,985.992391 C761.971846,987.456092 753.566349,989.102734 753.526925,989.85133 C753.430535,991.68158 753.430535,997.200083 753.526925,1006.40684 C759.373506,1005.94236 765.970872,1005.11257 773.319021,1003.91746 C780.66717,1002.72235 791.680543,1000.68791 806.35914,997.814152 C806.35914,1004.73637 806.35914,1010.27468 806.35914,1014.42907 C806.35914,1018.58345 806.35914,1025.16983 806.35914,1034.18822 C790.199395,1035.13253 779.186022,1035.85716 773.319021,1036.36211 C762.81335,1037.2663 753.140981,1038.41162 753.140981,1039.05752 C753.140981,1043.27227 753.140981,1048.72769 753.140981,1055.42378 C762.978514,1054.47444 773.927867,1053.09468 785.989039,1051.28449 C797.742465,1049.52049 812.937424,1046.98969 831.573916,1043.69209 C831.825267,1036.34063 831.950942,1029.89792 831.950942,1024.36393 C831.950942,1007.88334 830.836337,984.072277 828.607128,952.93075 C840.202809,952.003778 849.585282,951.342152 856.754548,950.945872 C863.923813,950.549592 874.680274,949.436416 889.023931,947.606342 C895.763494,959.523502 900.954231,968.315523 904.596143,973.982407 C908.238056,979.64929 913.795842,987.582174 921.269503,997.781058 C920.531187,987.697179 920.042223,979.087663 919.80261,971.952512 C919.562997,964.817361 918.69668,955.615928 917.203661,944.348213 C931.82848,943.442053 942.819487,942.700672 950.176684,942.124071 C957.533881,941.547469 966.453702,940.728389 976.936147,939.66683 C975.480418,969.20462 974.593428,993.625676 974.275177,1012.93 C973.956926,1032.23432 975.198534,1060.58574 978,1097.98426 L917.203661,1103.25464 C906.100502,1076.3589 899.388951,1060.53792 897.069007,1055.79169 C894.749064,1051.04545 891.329012,1046.1388 886.808852,1041.07171 C886.556741,1052.22161 886.556741,1060.68085 886.808852,1066.44944 C887.060964,1072.21803 887.799323,1081.52225 889.023931,1094.36211 L828.607128,1097.98426 C828.633921,1097.59244 828.660553,1097.20178 828.687025,1096.81229 Z M160.825576,1036.82821 C160.880039,1033.71682 160.90727,1030.78031 160.90727,1028.01866 C160.90727,1011.13541 159.889501,986.0518 157.853964,952.767839 L219.582701,947.507535 C218.349268,963.098541 217.593811,974.676035 217.316329,982.240016 C217.038847,989.803997 217.038847,998.819787 217.316329,1009.28739 L241.080134,1005.63191 C240.932476,993.606798 240.677001,983.8321 240.313711,976.307816 C239.95042,968.783532 238.967801,957.994376 237.365853,943.940348 L300.547272,939.743749 C297.925205,974.323597 296.614172,1000.65711 296.614172,1018.74429 C296.614172,1036.83147 297.925205,1063.34174 300.547272,1098.27511 L236.020605,1103.57156 C238.082244,1085.03401 239.513279,1070.83083 240.313711,1060.96204 C241.114142,1051.09325 241.114142,1043.98189 240.313711,1039.62796 L217.316329,1042.40385 C216.4108,1047.00285 216.126666,1053.18891 216.463928,1060.96204 C216.80119,1068.73517 217.840781,1079.96072 219.582701,1094.63869 L157.853964,1098.27511 C158.011512,1095.95667 158.162964,1093.67738 158.308319,1091.43724 C132.7532,1098.07253 107.645098,1101.79524 82.9840111,1102.60535 C39.6829479,1104.02778 6.8255634,1088.81313 1.35900737,1069.16013 C-4.5638505,1040.33464 9.46845001,1009.97822 31.8719732,985.872819 C44.9853254,971.763312 74.1345927,954.531289 119.319775,934.176751 L145.48797,989.23974 C81.5601864,1006.82767 51.276421,1024.42614 54.6366734,1042.03516 C57.0365287,1054.61132 76.7321163,1057.98338 113.86798,1050.17522 C122.970665,1048.26129 138.623197,1043.81229 160.825576,1036.82821 Z M318.907471,947.892166 L381.950848,943.172187 C378.879458,975.369415 377.343764,999.968232 377.343764,1016.96864 C377.343764,1033.96904 378.879458,1059.31335 381.950848,1093.00157 L318.907471,1097.3488 C322.062697,1062.73398 323.64031,1035.94059 323.64031,1016.96864 C323.64031,997.996684 322.062697,974.971194 318.907471,947.892166 Z" id="chicken"></path>
        </g>
    </g>
</svg>